<mxfile host="app.diagrams.net" agent="Mozilla/5.0 (Windows NT 10.0; Win64; x64) AppleWebKit/537.36 (KHTML, like Gecko) Chrome/139.0.0.0 Safari/537.36" version="28.2.0">
  <diagram name="第 1 页" id="CxN-nvPnmQ1PO7884Idd">
    <mxGraphModel dx="2655" dy="959" grid="1" gridSize="10" guides="1" tooltips="1" connect="1" arrows="1" fold="1" page="1" pageScale="1" pageWidth="827" pageHeight="1169" math="0" shadow="0">
      <root>
        <mxCell id="0" />
        <mxCell id="1" parent="0" />
        <mxCell id="kjXMb5Oc9gqvb5fUqaoA-7" value="The Canonical ECS Architecture" style="swimlane;whiteSpace=wrap;html=1;fontSize=20;" vertex="1" parent="1">
          <mxGeometry x="-460" y="50" width="1390" height="420" as="geometry" />
        </mxCell>
        <mxCell id="kjXMb5Oc9gqvb5fUqaoA-13" style="edgeStyle=orthogonalEdgeStyle;rounded=0;orthogonalLoop=1;jettySize=auto;html=1;entryX=0;entryY=0.5;entryDx=0;entryDy=0;" edge="1" parent="kjXMb5Oc9gqvb5fUqaoA-7" source="kjXMb5Oc9gqvb5fUqaoA-8" target="kjXMb5Oc9gqvb5fUqaoA-11">
          <mxGeometry relative="1" as="geometry" />
        </mxCell>
        <mxCell id="kjXMb5Oc9gqvb5fUqaoA-8" value="World:&lt;div&gt;A collection of systems and entities&lt;/div&gt;" style="rounded=1;whiteSpace=wrap;html=1;fontStyle=5;fontSize=20;fillColor=#d5e8d4;strokeColor=#82b366;" vertex="1" parent="kjXMb5Oc9gqvb5fUqaoA-7">
          <mxGeometry x="40" y="140" width="120" height="110" as="geometry" />
        </mxCell>
        <mxCell id="kjXMb5Oc9gqvb5fUqaoA-11" value="System" style="rounded=1;whiteSpace=wrap;html=1;fontStyle=5;fontSize=20;fillColor=#fff2cc;strokeColor=#d6b656;" vertex="1" parent="kjXMb5Oc9gqvb5fUqaoA-7">
          <mxGeometry x="240" y="60" width="120" height="60" as="geometry" />
        </mxCell>
        <mxCell id="kjXMb5Oc9gqvb5fUqaoA-26" style="edgeStyle=orthogonalEdgeStyle;rounded=0;orthogonalLoop=1;jettySize=auto;html=1;entryX=0;entryY=0.5;entryDx=0;entryDy=0;" edge="1" parent="kjXMb5Oc9gqvb5fUqaoA-7" source="kjXMb5Oc9gqvb5fUqaoA-12" target="kjXMb5Oc9gqvb5fUqaoA-15">
          <mxGeometry relative="1" as="geometry" />
        </mxCell>
        <mxCell id="kjXMb5Oc9gqvb5fUqaoA-27" style="edgeStyle=orthogonalEdgeStyle;rounded=0;orthogonalLoop=1;jettySize=auto;html=1;exitX=1;exitY=0.5;exitDx=0;exitDy=0;entryX=0;entryY=0.5;entryDx=0;entryDy=0;" edge="1" parent="kjXMb5Oc9gqvb5fUqaoA-7" source="kjXMb5Oc9gqvb5fUqaoA-12" target="kjXMb5Oc9gqvb5fUqaoA-24">
          <mxGeometry relative="1" as="geometry" />
        </mxCell>
        <mxCell id="kjXMb5Oc9gqvb5fUqaoA-28" style="edgeStyle=orthogonalEdgeStyle;rounded=0;orthogonalLoop=1;jettySize=auto;html=1;exitX=1;exitY=0.5;exitDx=0;exitDy=0;entryX=0;entryY=0.5;entryDx=0;entryDy=0;" edge="1" parent="kjXMb5Oc9gqvb5fUqaoA-7" source="kjXMb5Oc9gqvb5fUqaoA-12" target="kjXMb5Oc9gqvb5fUqaoA-25">
          <mxGeometry relative="1" as="geometry" />
        </mxCell>
        <mxCell id="kjXMb5Oc9gqvb5fUqaoA-12" value="Entity:&lt;div&gt;An ID corresponds to a collection of components&lt;/div&gt;" style="rounded=1;whiteSpace=wrap;html=1;fontStyle=5;fontSize=20;fillColor=#f8cecc;strokeColor=#b85450;" vertex="1" parent="kjXMb5Oc9gqvb5fUqaoA-7">
          <mxGeometry x="240" y="210" width="420" height="110" as="geometry" />
        </mxCell>
        <mxCell id="kjXMb5Oc9gqvb5fUqaoA-14" style="edgeStyle=orthogonalEdgeStyle;rounded=0;orthogonalLoop=1;jettySize=auto;html=1;exitX=1;exitY=0.5;exitDx=0;exitDy=0;entryX=-0.005;entryY=0.627;entryDx=0;entryDy=0;entryPerimeter=0;" edge="1" parent="kjXMb5Oc9gqvb5fUqaoA-7" source="kjXMb5Oc9gqvb5fUqaoA-8" target="kjXMb5Oc9gqvb5fUqaoA-12">
          <mxGeometry relative="1" as="geometry" />
        </mxCell>
        <mxCell id="kjXMb5Oc9gqvb5fUqaoA-15" value="Component&amp;nbsp; A" style="rounded=1;whiteSpace=wrap;html=1;fontStyle=5;fontSize=20;" vertex="1" parent="kjXMb5Oc9gqvb5fUqaoA-7">
          <mxGeometry x="750" y="130" width="170" height="60" as="geometry" />
        </mxCell>
        <mxCell id="kjXMb5Oc9gqvb5fUqaoA-24" value="Component&amp;nbsp; B" style="rounded=1;whiteSpace=wrap;html=1;fontStyle=5;fontSize=20;" vertex="1" parent="kjXMb5Oc9gqvb5fUqaoA-7">
          <mxGeometry x="750" y="235" width="170" height="60" as="geometry" />
        </mxCell>
        <mxCell id="kjXMb5Oc9gqvb5fUqaoA-25" value="Component&amp;nbsp; C" style="rounded=1;whiteSpace=wrap;html=1;fontStyle=5;fontSize=20;" vertex="1" parent="kjXMb5Oc9gqvb5fUqaoA-7">
          <mxGeometry x="750" y="340" width="170" height="60" as="geometry" />
        </mxCell>
        <mxCell id="kjXMb5Oc9gqvb5fUqaoA-29" value="Components only store a game state and have no behaviors :&lt;div&gt;&lt;b&gt;&lt;i&gt;Components have no functions&lt;/i&gt;&lt;/b&gt;&lt;/div&gt;" style="ellipse;shape=cloud;whiteSpace=wrap;html=1;fontSize=20;" vertex="1" parent="kjXMb5Oc9gqvb5fUqaoA-7">
          <mxGeometry x="930" y="230" width="390" height="100" as="geometry" />
        </mxCell>
        <mxCell id="kjXMb5Oc9gqvb5fUqaoA-30" value="Systems have behaviors and have no game state:&lt;div&gt;&lt;b&gt;&lt;i&gt;Systems have no fields&lt;/i&gt;&lt;/b&gt; (Systems have no 成员变量)&lt;/div&gt;" style="ellipse;shape=cloud;whiteSpace=wrap;html=1;fontSize=20;" vertex="1" parent="kjXMb5Oc9gqvb5fUqaoA-7">
          <mxGeometry x="360" y="30" width="600" height="100" as="geometry" />
        </mxCell>
        <mxCell id="kjXMb5Oc9gqvb5fUqaoA-31" value="The ECS Architecture Of OverWatch" style="swimlane;whiteSpace=wrap;html=1;fontSize=20;" vertex="1" parent="1">
          <mxGeometry x="-680" y="510" width="1650" height="560" as="geometry" />
        </mxCell>
        <mxCell id="kjXMb5Oc9gqvb5fUqaoA-32" style="edgeStyle=orthogonalEdgeStyle;rounded=0;orthogonalLoop=1;jettySize=auto;html=1;entryX=0;entryY=0.5;entryDx=0;entryDy=0;" edge="1" parent="kjXMb5Oc9gqvb5fUqaoA-31" source="kjXMb5Oc9gqvb5fUqaoA-33" target="kjXMb5Oc9gqvb5fUqaoA-34">
          <mxGeometry relative="1" as="geometry" />
        </mxCell>
        <mxCell id="kjXMb5Oc9gqvb5fUqaoA-33" value="EntityAdmin:&lt;div&gt;Array&amp;lt;System&amp;gt; : 保存了一组系统&lt;/div&gt;&lt;div&gt;hash_map&amp;lt;EntityID, Entity&amp;gt;&lt;br&gt;&lt;div&gt;&lt;br&gt;&lt;/div&gt;&lt;/div&gt;" style="rounded=1;whiteSpace=wrap;html=1;fontStyle=5;fontSize=20;fillColor=#d5e8d4;strokeColor=#82b366;" vertex="1" parent="kjXMb5Oc9gqvb5fUqaoA-31">
          <mxGeometry x="70" y="140" width="390" height="110" as="geometry" />
        </mxCell>
        <mxCell id="kjXMb5Oc9gqvb5fUqaoA-34" value="System" style="rounded=1;whiteSpace=wrap;html=1;fontStyle=5;fontSize=20;fillColor=#fff2cc;strokeColor=#d6b656;" vertex="1" parent="kjXMb5Oc9gqvb5fUqaoA-31">
          <mxGeometry x="500" y="60" width="120" height="60" as="geometry" />
        </mxCell>
        <mxCell id="kjXMb5Oc9gqvb5fUqaoA-35" style="edgeStyle=orthogonalEdgeStyle;rounded=0;orthogonalLoop=1;jettySize=auto;html=1;entryX=0;entryY=0.5;entryDx=0;entryDy=0;exitX=1;exitY=0.5;exitDx=0;exitDy=0;" edge="1" parent="kjXMb5Oc9gqvb5fUqaoA-31" source="kjXMb5Oc9gqvb5fUqaoA-45" target="kjXMb5Oc9gqvb5fUqaoA-40">
          <mxGeometry relative="1" as="geometry" />
        </mxCell>
        <mxCell id="kjXMb5Oc9gqvb5fUqaoA-36" style="edgeStyle=orthogonalEdgeStyle;rounded=0;orthogonalLoop=1;jettySize=auto;html=1;exitX=1;exitY=0.5;exitDx=0;exitDy=0;entryX=0;entryY=0.5;entryDx=0;entryDy=0;" edge="1" parent="kjXMb5Oc9gqvb5fUqaoA-31" source="kjXMb5Oc9gqvb5fUqaoA-45" target="kjXMb5Oc9gqvb5fUqaoA-41">
          <mxGeometry relative="1" as="geometry" />
        </mxCell>
        <mxCell id="kjXMb5Oc9gqvb5fUqaoA-37" style="edgeStyle=orthogonalEdgeStyle;rounded=0;orthogonalLoop=1;jettySize=auto;html=1;exitX=1;exitY=0.5;exitDx=0;exitDy=0;entryX=0;entryY=0.5;entryDx=0;entryDy=0;" edge="1" parent="kjXMb5Oc9gqvb5fUqaoA-31" source="kjXMb5Oc9gqvb5fUqaoA-45" target="kjXMb5Oc9gqvb5fUqaoA-42">
          <mxGeometry relative="1" as="geometry" />
        </mxCell>
        <mxCell id="kjXMb5Oc9gqvb5fUqaoA-47" style="edgeStyle=orthogonalEdgeStyle;rounded=0;orthogonalLoop=1;jettySize=auto;html=1;exitX=1;exitY=0.5;exitDx=0;exitDy=0;entryX=0;entryY=0.5;entryDx=0;entryDy=0;" edge="1" parent="kjXMb5Oc9gqvb5fUqaoA-31" source="kjXMb5Oc9gqvb5fUqaoA-38" target="kjXMb5Oc9gqvb5fUqaoA-45">
          <mxGeometry relative="1" as="geometry" />
        </mxCell>
        <mxCell id="kjXMb5Oc9gqvb5fUqaoA-38" value="Entity:&lt;div&gt;EntityID // 标识EntityAdmin中的unique实体；&lt;/div&gt;&lt;div&gt;Array&amp;lt;Component&amp;gt;;&lt;/div&gt;&lt;div&gt;resourceHandle&lt;/div&gt;" style="rounded=1;whiteSpace=wrap;html=1;fontStyle=5;fontSize=20;fillColor=#f8cecc;strokeColor=#b85450;" vertex="1" parent="kjXMb5Oc9gqvb5fUqaoA-31">
          <mxGeometry x="500" y="210" width="420" height="150" as="geometry" />
        </mxCell>
        <mxCell id="kjXMb5Oc9gqvb5fUqaoA-39" style="edgeStyle=orthogonalEdgeStyle;rounded=0;orthogonalLoop=1;jettySize=auto;html=1;exitX=1;exitY=0.5;exitDx=0;exitDy=0;entryX=-0.005;entryY=0.627;entryDx=0;entryDy=0;entryPerimeter=0;" edge="1" parent="kjXMb5Oc9gqvb5fUqaoA-31" source="kjXMb5Oc9gqvb5fUqaoA-33" target="kjXMb5Oc9gqvb5fUqaoA-38">
          <mxGeometry relative="1" as="geometry" />
        </mxCell>
        <mxCell id="kjXMb5Oc9gqvb5fUqaoA-40" value="Component&amp;nbsp; A" style="rounded=1;whiteSpace=wrap;html=1;fontStyle=5;fontSize=20;" vertex="1" parent="kjXMb5Oc9gqvb5fUqaoA-31">
          <mxGeometry x="1414" y="150" width="170" height="60" as="geometry" />
        </mxCell>
        <mxCell id="kjXMb5Oc9gqvb5fUqaoA-41" value="Component&amp;nbsp; B" style="rounded=1;whiteSpace=wrap;html=1;fontStyle=5;fontSize=20;" vertex="1" parent="kjXMb5Oc9gqvb5fUqaoA-31">
          <mxGeometry x="1414" y="255" width="170" height="60" as="geometry" />
        </mxCell>
        <mxCell id="kjXMb5Oc9gqvb5fUqaoA-42" value="Component&amp;nbsp; C" style="rounded=1;whiteSpace=wrap;html=1;fontStyle=5;fontSize=20;" vertex="1" parent="kjXMb5Oc9gqvb5fUqaoA-31">
          <mxGeometry x="1414" y="360" width="170" height="60" as="geometry" />
        </mxCell>
        <mxCell id="kjXMb5Oc9gqvb5fUqaoA-43" value="&lt;span style=&quot;color: rgb(44, 62, 80); font-family: -apple-system, BlinkMacSystemFont, &amp;quot;Segoe UI&amp;quot;, Roboto, Oxygen, Ubuntu, Cantarell, &amp;quot;Fira Sans&amp;quot;, &amp;quot;Droid Sans&amp;quot;, &amp;quot;Helvetica Neue&amp;quot;, sans-serif; font-size: 14px; text-align: left; background-color: rgb(247, 247, 248);&quot;&gt;多态主要用来保证所有组件都有一致的生命周期接口，而不是用来写行为&lt;/span&gt;&lt;div&gt;&lt;span style=&quot;color: rgb(44, 62, 80); font-family: -apple-system, BlinkMacSystemFont, &amp;quot;Segoe UI&amp;quot;, Roboto, Oxygen, Ubuntu, Cantarell, &amp;quot;Fira Sans&amp;quot;, &amp;quot;Droid Sans&amp;quot;, &amp;quot;Helvetica Neue&amp;quot;, sans-serif; font-size: 14px; text-align: left; background-color: rgb(247, 247, 248);&quot;&gt;换句话说：&lt;span style=&quot;box-sizing: inherit; font-weight: 600;&quot;&gt;继承的作用就是让 Entity 能用统一的方式去存储/管理各种不同类型的组件对象&lt;/span&gt;。&lt;/span&gt;&lt;/div&gt;" style="ellipse;shape=cloud;whiteSpace=wrap;html=1;fontSize=20;" vertex="1" parent="kjXMb5Oc9gqvb5fUqaoA-31">
          <mxGeometry x="820" y="50" width="530" height="150" as="geometry" />
        </mxCell>
        <mxCell id="kjXMb5Oc9gqvb5fUqaoA-45" value="Component:&lt;div&gt;抽象基类&lt;/div&gt;" style="rounded=1;whiteSpace=wrap;html=1;fontStyle=5;fontSize=20;" vertex="1" parent="kjXMb5Oc9gqvb5fUqaoA-31">
          <mxGeometry x="990" y="255" width="170" height="60" as="geometry" />
        </mxCell>
      </root>
    </mxGraphModel>
  </diagram>
</mxfile>
